<svg xmlns="http://www.w3.org/2000/svg" width="1200" height="630" viewBox="0 0 1200 630" role="img" aria-labelledby="title desc">
  <title id="title">YAN TUTOR</title>
  <desc id="desc">高中数学和高中物理一对一学习诊断</desc>
  <rect width="1200" height="630" fill="#f5efe5"/>
  <path d="M0 470 C190 398 340 430 520 360 C742 274 890 316 1200 214 L1200 630 L0 630 Z" fill="#1b3a2e"/>
  <path d="M80 104 H1120 V526 H80 Z" fill="none" stroke="#1b3a2e" stroke-width="3"/>
  <path d="M132 156 C246 90 352 92 460 158" fill="none" stroke="#c49752" stroke-width="8" stroke-linecap="round"/>
  <text x="130" y="260" fill="#17120c" font-family="Arial, 'Microsoft YaHei', sans-serif" font-size="86" font-weight="800">YAN TUTOR</text>
  <text x="134" y="334" fill="#3f3a31" font-family="Arial, 'Microsoft YaHei', sans-serif" font-size="34" font-weight="700">高中数学 / 高中物理一对一学习诊断</text>
  <text x="134" y="402" fill="#5e574b" font-family="Arial, 'Microsoft YaHei', sans-serif" font-size="28">先判断问题，再决定怎么补</text>
  <g transform="translate(850 132)" fill="none" stroke="#1b3a2e" stroke-width="5" opacity="0.62">
    <circle cx="92" cy="92" r="70"/>
    <path d="M22 92 H162 M92 22 V162"/>
    <path d="M43 140 C74 100 114 100 142 140"/>
  </g>
</svg>
